<svg width="99" height="97" viewBox="0 0 99 97" fill="none" xmlns="http://www.w3.org/2000/svg">
<path d="M48.3746 85.278C28.2808 85.278 11.939 68.9552 11.939 48.8849C11.939 28.8145 28.2808 12.4917 48.3746 12.4917C68.4684 12.4917 84.8103 28.8145 84.8103 48.8849C84.8103 68.9552 68.4684 85.278 48.3746 85.278ZM48.3746 14.657C29.5315 14.657 14.1901 29.9804 14.1901 48.8016C14.1901 67.6228 29.5315 82.9462 48.3746 82.9462C67.2178 82.9462 82.5591 67.6228 82.5591 48.8016C82.5591 29.9804 67.2178 14.657 48.3746 14.657Z" fill="#333333"/>
<path opacity="0.5" d="M25.4457 90.6081C25.1956 90.6081 24.9455 90.5248 24.6953 90.3583L15.3571 82.4467C14.9403 82.1136 14.8569 81.5306 15.107 81.0309L60.1305 0.582913C60.2972 0.333074 60.5473 0.0832357 60.7975 -4.38774e-05C61.131 -0.0833234 61.3811 -4.38805e-05 61.7146 0.166515L95.8991 21.2362C96.2326 21.4028 96.3994 21.7359 96.3994 22.069C96.3994 22.4022 96.316 22.7353 96.0658 22.9851L26.2795 90.275C26.0294 90.5248 25.7792 90.6081 25.4457 90.6081ZM17.5249 81.3641L25.4457 87.9431L93.4812 22.4022L61.5479 2.74818L17.5249 81.3641Z" fill="#333333"/>
<g opacity="0.25">
<path d="M2.68404 68.2058C2.43391 68.2058 2.18378 68.1225 1.93365 67.9559C1.68352 67.7894 1.51676 67.4562 1.51676 67.1231L0.266113 44.4711C0.266113 44.138 0.349491 43.8881 0.599622 43.6383C0.849752 43.3885 1.09988 43.3052 1.43339 43.3052L96.733 44.0547C97.3167 44.0547 97.8169 44.5544 97.9003 45.1373L98.5673 55.1309C98.5673 55.7138 98.1504 56.2968 97.5668 56.2968L2.85079 68.2058C2.76741 68.2058 2.76742 68.2058 2.68404 68.2058ZM2.68404 45.5537L3.76794 65.7907L96.2328 54.1315L95.7325 46.3032L2.68404 45.5537Z" fill="#333333"/>
</g>
<path d="M69.6356 96.1878C69.5522 96.1878 69.5522 96.1878 69.4689 96.1878C69.1354 96.1878 68.8852 95.938 68.6351 95.6881L25.6127 33.5616C25.2792 33.1452 25.3626 32.5623 25.6961 32.1459L31.6158 25.3169C32.0327 24.9005 32.6997 24.8173 33.1166 25.1504L96.5663 71.2872C96.8164 71.4538 96.9832 71.7869 97.0666 72.12C97.15 72.4532 96.8998 72.7863 96.6497 73.0361L70.386 95.938C70.1359 96.1045 69.8857 96.1878 69.6356 96.1878ZM27.9472 32.9786L69.8024 93.3563L94.065 72.2866L32.6163 27.6488L27.9472 32.9786Z" fill="#333333"/>
</svg>
