<svg width="174" height="141" viewBox="0 0 174 141" fill="none" xmlns="http://www.w3.org/2000/svg">
<path d="M17.3226 134.246C16.3302 135.149 15.3378 135.871 14.3453 136.413C13.3529 136.955 12.18 137.136 10.8266 137.136C9.74398 137.136 8.66132 136.955 7.7591 136.504C6.85688 136.052 5.95466 135.51 5.3231 134.788C4.60133 134.065 4.05999 133.162 3.6991 132.168C3.33822 131.175 3.06755 130.091 3.06755 128.827C3.06755 127.653 3.24799 126.569 3.6991 125.575C4.05999 124.582 4.60133 123.679 5.3231 122.956C6.04488 122.234 6.85688 121.601 7.7591 121.24C8.66132 120.789 9.74398 120.608 10.8266 120.608C12.18 120.608 13.3529 120.879 14.3453 121.33C15.3378 121.872 16.24 122.505 17.1422 123.317L17.4129 123.498L19.488 121.33L19.3075 121.15C18.7662 120.608 18.2249 120.156 17.6835 119.795C17.1422 119.343 16.5106 118.982 15.7889 118.711C15.1573 118.44 14.3453 118.169 13.6235 117.989C12.8115 117.808 11.9995 117.718 11.0071 117.718C9.47332 117.718 7.93954 117.989 6.67643 118.621C5.3231 119.163 4.24044 119.976 3.24799 120.969C2.25555 121.963 1.53378 123.137 0.992443 124.492C0.270666 125.937 0 127.382 0 128.917C0 130.452 0.270666 131.897 0.811999 133.252C1.35333 134.607 2.07511 135.781 3.06755 136.775C4.05999 137.768 5.14266 138.581 6.49599 139.123C7.7591 139.665 9.20265 140.026 10.7364 140.026C11.7289 140.026 12.6311 139.936 13.3529 139.755C14.1649 139.574 14.8866 139.303 15.6084 139.032C16.3302 138.671 16.9618 138.31 17.5933 137.858C18.2249 137.407 18.7662 136.865 19.3075 136.323L19.488 136.142L17.5031 134.155L17.3226 134.246Z" fill="#F9FAFB"/>
<path d="M31.8485 117.988L22.1045 139.574H25.172L27.608 134.065H38.5249L40.9609 139.574H44.2089L34.4649 117.988H31.8485ZM37.352 131.355H28.8711L33.1116 121.872L37.352 131.355Z" fill="#F9FAFB"/>
<path d="M47.1855 120.968H54.2229V139.573H57.2002V120.968H64.1473V118.168H47.1855V120.968Z" fill="#F9FAFB"/>
<path d="M76.9593 117.988L67.2153 139.574H70.2829L72.7189 134.065H83.6357L86.0717 139.574H89.3197L79.5757 117.988H76.9593ZM82.4629 131.355H73.982L78.2224 121.872L82.4629 131.355Z" fill="#F9FAFB"/>
<path d="M96.8078 118.168H93.7402V139.573H108.446V136.773H96.8078V118.168Z" fill="#F9FAFB"/>
<path d="M116.296 130.18H127.664V127.38H116.296V120.877H129.017V118.168H113.319V139.573H129.198V136.863H116.296V130.18Z" fill="#F9FAFB"/>
<path d="M142.912 132.438C142.912 133.973 142.551 135.147 141.829 135.96C141.107 136.773 140.205 137.134 139.122 137.134C138.13 137.134 137.228 136.863 136.596 136.412C135.874 135.96 135.243 135.238 134.611 134.244L134.431 133.973L132.266 135.87L132.446 136.141C133.078 137.225 133.98 138.128 135.063 138.85C136.145 139.573 137.498 139.934 139.122 139.934C141.017 139.934 142.641 139.302 143.904 138.128C144.536 137.496 144.987 136.683 145.348 135.78C145.709 134.877 145.889 133.702 145.889 132.438V118.168H142.912V132.438Z" fill="#F9FAFB"/>
<path d="M172.956 128.645C172.956 127.2 172.685 125.845 172.144 124.581C171.602 123.226 170.881 122.052 169.888 121.059C168.896 120.065 167.813 119.252 166.46 118.62C165.106 117.988 163.663 117.717 162.039 117.717C160.415 117.717 158.881 117.988 157.528 118.62C156.174 119.252 155.002 120.065 154.099 121.059C153.107 122.052 152.385 123.226 151.844 124.581C151.302 125.936 151.032 127.381 151.032 128.826C151.032 130.271 151.302 131.716 151.844 133.071C152.385 134.425 153.107 135.599 154.099 136.593C155.092 137.586 156.174 138.399 157.528 139.031C158.881 139.664 160.325 139.935 161.949 139.935C163.573 139.935 165.106 139.664 166.46 139.031C167.813 138.399 168.986 137.586 169.888 136.593C170.881 135.599 171.602 134.425 172.144 133.071C172.685 131.806 172.956 130.361 172.956 128.916L173.046 128.735L172.956 128.645ZM158.971 136.503C157.979 136.051 157.167 135.509 156.445 134.696C155.723 133.974 155.182 133.071 154.821 132.077C154.46 131.084 154.19 130 154.19 128.826C154.19 127.652 154.37 126.568 154.821 125.574C155.182 124.581 155.723 123.678 156.445 122.955C157.167 122.233 157.979 121.6 158.881 121.239C159.874 120.788 160.866 120.607 162.039 120.607C163.212 120.607 164.204 120.788 165.197 121.239C166.189 121.691 167.001 122.233 167.723 123.045C168.445 123.768 168.986 124.671 169.347 125.665C169.708 126.658 169.978 127.742 169.978 128.916C169.978 130.09 169.798 131.174 169.347 132.167C168.986 133.161 168.445 134.064 167.723 134.787C167.001 135.509 166.189 136.141 165.287 136.503C163.302 137.315 160.866 137.406 158.971 136.503Z" fill="#F9FAFB"/>
<path d="M85.8919 92.5196C64.1484 92.5196 46.4648 74.8176 46.4648 53.0513C46.4648 31.285 64.1484 13.583 85.8919 13.583C107.635 13.583 125.319 31.285 125.319 53.0513C125.319 74.8176 107.635 92.5196 85.8919 92.5196ZM85.8919 15.9312C65.5017 15.9312 48.9008 32.5495 48.9008 52.961C48.9008 73.3725 65.5017 89.9907 85.8919 89.9907C106.282 89.9907 122.883 73.3725 122.883 52.961C122.883 32.5495 106.282 15.9312 85.8919 15.9312Z" fill="#F9FAFB"/>
<path opacity="0.5" d="M61.0805 98.2997C60.8098 98.2997 60.5392 98.2094 60.2685 98.0288L50.1636 89.4487C49.7125 89.0874 49.6223 88.4552 49.893 87.9133L98.6129 0.667647C98.7933 0.396697 99.064 0.125748 99.3347 0.0354316C99.6956 -0.0548849 99.9662 0.0354316 100.327 0.216064L137.318 23.0661C137.679 23.2468 137.859 23.608 137.859 23.9693C137.859 24.3306 137.769 24.6918 137.499 24.9628L61.9827 97.9385C61.7121 98.2094 61.4414 98.2997 61.0805 98.2997ZM52.5094 88.2746L61.0805 95.4096L134.702 24.3306L100.147 3.01587L52.5094 88.2746Z" fill="#F9FAFB"/>
<g opacity="0.25">
<path d="M36.4499 74.0046C36.1793 74.0046 35.9086 73.9143 35.6379 73.7337C35.3673 73.553 35.1868 73.1918 35.1868 72.8305L33.8335 48.2644C33.8335 47.9032 33.9237 47.6322 34.1944 47.3613C34.4651 47.0903 34.7357 47 35.0966 47L138.22 47.8128C138.852 47.8128 139.393 48.3547 139.484 48.987L140.205 59.8249C140.205 60.4572 139.754 61.0894 139.123 61.0894L36.6304 74.0046C36.5402 74.0046 36.5402 74.0046 36.4499 74.0046ZM36.4499 49.4385L37.6228 71.3855L137.679 58.7411L137.138 50.2514L36.4499 49.4385Z" fill="#F9FAFB"/>
</g>
<path d="M108.898 104.351C108.808 104.351 108.808 104.351 108.718 104.351C108.357 104.351 108.086 104.08 107.816 103.809L61.261 36.4328C60.9001 35.9812 60.9903 35.349 61.3512 34.8974L67.757 27.4914C68.2081 27.0399 68.9299 26.9495 69.381 27.3108L138.04 77.3461C138.311 77.5268 138.491 77.888 138.581 78.2493C138.672 78.6105 138.401 78.9718 138.13 79.2428L109.71 104.08C109.44 104.26 109.169 104.351 108.898 104.351ZM63.7872 35.8006L109.079 101.28L135.333 78.4299L68.8396 30.0203L63.7872 35.8006Z" fill="#ACB0B2"/>
</svg>
