<svg width="160" height="129" viewBox="0 0 160 129" fill="none" xmlns="http://www.w3.org/2000/svg">
<path d="M16.0083 123.753C15.0912 124.586 14.174 125.252 13.2569 125.752C12.3398 126.252 11.2559 126.418 10.0052 126.418C9.00469 126.418 8.00417 126.252 7.1704 125.835C6.33663 125.419 5.50287 124.919 4.91923 124.253C4.25222 123.587 3.75195 122.754 3.41845 121.838C3.08494 120.922 2.83481 119.922 2.83481 118.757C2.83481 117.674 3.00156 116.675 3.41845 115.759C3.75195 114.842 4.25222 114.01 4.91923 113.343C5.58624 112.677 6.33663 112.094 7.1704 111.761C8.00417 111.345 9.00469 111.178 10.0052 111.178C11.2559 111.178 12.3398 111.428 13.2569 111.844C14.174 112.344 15.0078 112.927 15.8416 113.677L16.0917 113.843L18.0094 111.844L17.8426 111.678C17.3424 111.178 16.8421 110.762 16.3418 110.429C15.8416 110.012 15.2579 109.679 14.5909 109.429C14.0073 109.179 13.2569 108.93 12.5899 108.763C11.8395 108.596 11.0891 108.513 10.172 108.513C8.75456 108.513 7.33716 108.763 6.16988 109.346C4.91923 109.846 3.91871 110.595 3.00156 111.511C2.08442 112.427 1.41741 113.51 0.917144 114.759C0.25013 116.092 0 117.424 0 118.84C0 120.256 0.25013 121.588 0.750391 122.837C1.25065 124.086 1.91767 125.169 2.83481 126.085C3.75195 127.001 4.75248 127.751 6.00313 128.25C7.1704 128.75 8.50443 129.083 9.92183 129.083C10.839 129.083 11.6727 129 12.3398 128.833C13.0902 128.667 13.7572 128.417 14.4242 128.167C15.0912 127.834 15.6748 127.501 16.2585 127.085C16.8421 126.668 17.3424 126.168 17.8426 125.669L18.0094 125.502L16.1751 123.67L16.0083 123.753Z" fill="#333333"/>
<path d="M29.4319 108.763L20.4272 128.667H23.2621L25.5132 123.587H35.6018L37.853 128.667H40.8545L31.8499 108.763H29.4319ZM34.5179 121.089H26.6805L30.5992 112.344L34.5179 121.089Z" fill="#333333"/>
<path d="M43.606 111.511H50.1093V128.667H52.8608V111.511H59.2808V108.93H43.606V111.511Z" fill="#333333"/>
<path d="M71.1204 108.763L62.1157 128.667H64.9505L67.2017 123.587H77.2903L79.5415 128.667H82.543L73.5383 108.763H71.1204ZM76.2064 121.089H68.369L72.2877 112.344L76.2064 121.089Z" fill="#333333"/>
<path d="M89.4632 108.93H86.6284V128.667H100.219V126.085H89.4632V108.93Z" fill="#333333"/>
<path d="M107.473 120.006H117.978V117.424H107.473V111.428H119.229V108.93H104.721V128.667H119.395V126.169H107.473V120.006Z" fill="#333333"/>
<path d="M132.069 122.088C132.069 123.504 131.735 124.586 131.068 125.336C130.401 126.085 129.568 126.418 128.567 126.418C127.65 126.418 126.816 126.169 126.233 125.752C125.566 125.336 124.982 124.67 124.398 123.753L124.232 123.504L122.23 125.252L122.397 125.502C122.981 126.502 123.815 127.334 124.815 128.001C125.816 128.667 127.066 129 128.567 129C130.318 129 131.819 128.417 132.986 127.334C133.57 126.751 133.987 126.002 134.32 125.169C134.654 124.336 134.82 123.254 134.82 122.088V108.93H132.069V122.088Z" fill="#333333"/>
<path d="M159.833 118.59C159.833 117.258 159.583 116.008 159.083 114.842C158.583 113.593 157.916 112.511 156.999 111.595C156.081 110.678 155.081 109.929 153.83 109.346C152.58 108.763 151.246 108.513 149.745 108.513C148.244 108.513 146.827 108.763 145.576 109.346C144.325 109.929 143.241 110.678 142.408 111.595C141.49 112.511 140.823 113.593 140.323 114.842C139.823 116.092 139.573 117.424 139.573 118.757C139.573 120.089 139.823 121.422 140.323 122.671C140.823 123.92 141.49 125.003 142.408 125.919C143.325 126.835 144.325 127.584 145.576 128.167C146.827 128.75 148.161 129 149.661 129C151.162 129 152.58 128.75 153.83 128.167C155.081 127.584 156.165 126.835 156.999 125.919C157.916 125.003 158.583 123.92 159.083 122.671C159.583 121.505 159.833 120.172 159.833 118.84L159.917 118.673L159.833 118.59ZM146.91 125.835C145.993 125.419 145.242 124.919 144.575 124.17C143.908 123.504 143.408 122.671 143.075 121.755C142.741 120.839 142.491 119.839 142.491 118.757C142.491 117.674 142.658 116.675 143.075 115.759C143.408 114.842 143.908 114.01 144.575 113.343C145.242 112.677 145.993 112.094 146.827 111.761C147.744 111.345 148.661 111.178 149.745 111.178C150.829 111.178 151.746 111.345 152.663 111.761C153.58 112.177 154.33 112.677 154.997 113.427C155.664 114.093 156.165 114.926 156.498 115.842C156.832 116.758 157.082 117.757 157.082 118.84C157.082 119.922 156.915 120.922 156.498 121.838C156.165 122.754 155.664 123.587 154.997 124.253C154.33 124.919 153.58 125.502 152.746 125.835C150.912 126.585 148.661 126.668 146.91 125.835Z" fill="#333333"/>
<path d="M79.3746 85.278C59.2808 85.278 42.939 68.9552 42.939 48.8849C42.939 28.8145 59.2808 12.4917 79.3746 12.4917C99.4684 12.4917 115.81 28.8145 115.81 48.8849C115.81 68.9552 99.4684 85.278 79.3746 85.278ZM79.3746 14.657C60.5315 14.657 45.1901 29.9804 45.1901 48.8016C45.1901 67.6228 60.5315 82.9462 79.3746 82.9462C98.2178 82.9462 113.559 67.6228 113.559 48.8016C113.559 29.9804 98.2178 14.657 79.3746 14.657Z" fill="#333333"/>
<path opacity="0.5" d="M56.4457 90.6081C56.1956 90.6081 55.9455 90.5248 55.6953 90.3583L46.3571 82.4467C45.9403 82.1136 45.8569 81.5306 46.107 81.0309L91.1305 0.582913C91.2972 0.333074 91.5473 0.0832357 91.7975 -4.38774e-05C92.131 -0.0833234 92.3811 -4.38805e-05 92.7146 0.166515L126.899 21.2362C127.233 21.4028 127.399 21.7359 127.399 22.069C127.399 22.4022 127.316 22.7353 127.066 22.9851L57.2795 90.275C57.0294 90.5248 56.7792 90.6081 56.4457 90.6081ZM48.5249 81.3641L56.4457 87.9431L124.481 22.4022L92.5479 2.74818L48.5249 81.3641Z" fill="#333333"/>
<g opacity="0.25">
<path d="M33.684 68.2058C33.4339 68.2058 33.1838 68.1225 32.9336 67.9559C32.6835 67.7894 32.5168 67.4562 32.5168 67.1231L31.2661 44.4711C31.2661 44.138 31.3495 43.8881 31.5996 43.6383C31.8498 43.3885 32.0999 43.3052 32.4334 43.3052L127.733 44.0547C128.317 44.0547 128.817 44.5544 128.9 45.1373L129.567 55.1309C129.567 55.7138 129.15 56.2968 128.567 56.2968L33.8508 68.2058C33.7674 68.2058 33.7674 68.2058 33.684 68.2058ZM33.684 45.5537L34.7679 65.7907L127.233 54.1315L126.733 46.3032L33.684 45.5537Z" fill="#333333"/>
</g>
<path d="M100.636 96.1878C100.552 96.1878 100.552 96.1878 100.469 96.1878C100.135 96.1878 99.8852 95.938 99.6351 95.6881L56.6127 33.5616C56.2792 33.1452 56.3626 32.5623 56.6961 32.1459L62.6158 25.3169C63.0327 24.9005 63.6997 24.8173 64.1166 25.1504L127.566 71.2872C127.816 71.4538 127.983 71.7869 128.067 72.12C128.15 72.4532 127.9 72.7863 127.65 73.0361L101.386 95.938C101.136 96.1045 100.886 96.1878 100.636 96.1878ZM58.9472 32.9786L100.802 93.3563L125.065 72.2866L63.6163 27.6488L58.9472 32.9786Z" fill="#333333"/>
</svg>
